<svg xmlns="http://www.w3.org/2000/svg" viewBox="0 0 900 520" role="img" aria-label="Nebulife allied fleet">
  <defs>
    <linearGradient id="hull" x1="0" x2="1">
      <stop offset="0" stop-color="#1d3448"/>
      <stop offset="0.55" stop-color="#7bb8ff"/>
      <stop offset="1" stop-color="#d8ecff"/>
    </linearGradient>
    <filter id="glow">
      <feGaussianBlur stdDeviation="5" result="blur"/>
      <feMerge><feMergeNode in="blur"/><feMergeNode in="SourceGraphic"/></feMerge>
    </filter>
  </defs>
  <rect width="900" height="520" fill="#020510"/>
  <g opacity="0.25" stroke="#334455">
    <path d="M90 80 H810 M90 180 H810 M90 280 H810 M90 380 H810"/>
    <path d="M150 40 V480 M300 40 V480 M450 40 V480 M600 40 V480 M750 40 V480"/>
  </g>
  <g filter="url(#glow)">
    <path d="M110 270 L260 220 L430 255 L650 170 L810 260 L650 350 L430 285 L260 320 Z" fill="url(#hull)" opacity="0.92"/>
    <path d="M260 220 L430 255 L650 170 L535 258 L650 350 L430 285 L260 320 L365 270 Z" fill="#071426" opacity="0.64"/>
    <path d="M112 270 L246 252 L334 270 L246 288 Z" fill="#44ff88" opacity="0.62"/>
    <path d="M648 174 L802 260 L648 346 L700 260 Z" fill="#aabbcc" opacity="0.76"/>
    <circle cx="445" cy="270" r="18" fill="#7bb8ff" opacity="0.78"/>
    <circle cx="445" cy="270" r="7" fill="#d8ecff"/>
  </g>
  <g stroke="#7bb8ff" stroke-width="2" opacity="0.55">
    <path d="M160 120 C300 85 420 110 540 72" fill="none"/>
    <path d="M220 430 C390 390 530 430 710 380" fill="none"/>
  </g>
</svg>
